<svg width="789" height="601" viewBox="0 0 789 601" fill="none" xmlns="http://www.w3.org/2000/svg">
<g clip-path="url(#clip0_167_2)">
<path d="M432.063 207.906L440.176 157.198L385.411 134.887L377.298 211.963L432.063 207.906Z" fill="#BB907F"/>
<path d="M0 544.596C0 545.256 0.53003 545.786 1.19006 545.786H787.48C788.14 545.786 788.67 545.256 788.67 544.596C788.67 543.936 788.14 543.406 787.48 543.406H1.19006C0.53003 543.406 0 543.936 0 544.596Z" fill="#3F3D56"/>
<path d="M418.223 173.499C449.067 173.499 474.071 148.496 474.071 117.652C474.071 86.8086 449.067 61.805 418.223 61.805C387.38 61.805 362.376 86.8086 362.376 117.652C362.376 148.496 387.38 173.499 418.223 173.499Z" fill="#BB907F"/>
<mask id="path-4-inside-1_167_2" fill="white">
<path d="M413.766 42.5696C415.382 43.5129 417.547 42.0857 418.065 40.2877C418.583 38.4897 417.98 36.5807 417.381 34.8078C416.377 31.8329 415.372 28.858 414.368 25.883C412.231 19.5534 409.963 13.0025 405.334 8.18481C398.349 0.913267 387.247 -0.936583 377.253 0.403567C364.418 2.12458 351.755 9.07419 345.788 20.5663C339.82 32.0583 342.361 48.0939 353.144 55.2638C337.776 72.8782 332.419 92.5088 333.265 115.87C334.11 139.231 359.568 160.73 376.17 177.187C379.877 174.939 383.248 164.407 381.209 160.581C379.17 156.755 382.091 152.322 379.566 148.798C377.041 145.273 374.929 150.885 377.482 147.381C379.093 145.17 372.806 140.082 375.2 138.759C386.781 132.357 390.633 117.922 397.906 106.868C406.679 93.535 421.695 84.5056 437.585 83.0076C446.338 82.1824 455.584 83.677 462.759 88.7588C469.934 93.8406 474.579 102.922 472.915 111.555C477.224 107.18 479.369 100.768 478.56 94.6811C477.751 88.5939 474.006 82.965 468.703 79.8672C471.927 69.206 469.166 56.9426 461.683 48.6926C454.2 40.4426 423.846 41.8477 412.922 44.019"/>
</mask>
<path d="M413.766 42.5696C415.382 43.5129 417.547 42.0857 418.065 40.2877C418.583 38.4897 417.98 36.5807 417.381 34.8078C416.377 31.8329 415.372 28.858 414.368 25.883C412.231 19.5534 409.963 13.0025 405.334 8.18481C398.349 0.913267 387.247 -0.936583 377.253 0.403567C364.418 2.12458 351.755 9.07419 345.788 20.5663C339.82 32.0583 342.361 48.0939 353.144 55.2638C337.776 72.8782 332.419 92.5088 333.265 115.87C334.11 139.231 359.568 160.73 376.17 177.187C379.877 174.939 383.248 164.407 381.209 160.581C379.17 156.755 382.091 152.322 379.566 148.798C377.041 145.273 374.929 150.885 377.482 147.381C379.093 145.17 372.806 140.082 375.2 138.759C386.781 132.357 390.633 117.922 397.906 106.868C406.679 93.535 421.695 84.5056 437.585 83.0076C446.338 82.1824 455.584 83.677 462.759 88.7588C469.934 93.8406 474.579 102.922 472.915 111.555C477.224 107.18 479.369 100.768 478.56 94.6811C477.751 88.5939 474.006 82.965 468.703 79.8672C471.927 69.206 469.166 56.9426 461.683 48.6926C454.2 40.4426 423.846 41.8477 412.922 44.019" fill="#F7CAC9"/>
<path d="M418.065 40.2877L417.104 40.0107L417.104 40.0107L418.065 40.2877ZM417.381 34.8078L418.329 34.4879L417.381 34.8078ZM414.368 25.883L413.42 26.2029L413.42 26.2029L414.368 25.883ZM405.334 8.18481L404.613 8.8776L404.613 8.8776L405.334 8.18481ZM377.253 0.403567L377.386 1.3947L377.386 1.3947L377.253 0.403567ZM353.144 55.2638L353.897 55.9212L354.647 55.0623L353.698 54.4311L353.144 55.2638ZM376.17 177.187L375.466 177.897L376.02 178.447L376.688 178.042L376.17 177.187ZM381.209 160.581L380.327 161.051L380.327 161.051L381.209 160.581ZM379.566 148.798L380.379 148.215L380.379 148.215L379.566 148.798ZM377.482 147.381L376.673 146.792L376.673 146.792L377.482 147.381ZM375.2 138.759L375.684 139.634L375.684 139.634L375.2 138.759ZM397.906 106.868L397.071 106.319L397.071 106.319L397.906 106.868ZM437.585 83.0076L437.491 82.012L437.491 82.012L437.585 83.0076ZM462.759 88.7588L462.181 89.5749L462.181 89.5749L462.759 88.7588ZM472.915 111.555L471.933 111.366L471.307 114.613L473.627 112.257L472.915 111.555ZM468.703 79.8672L467.746 79.5778L467.518 80.3328L468.199 80.7307L468.703 79.8672ZM461.683 48.6926L462.423 48.0207L462.423 48.0207L461.683 48.6926ZM413.262 43.4332C414.467 44.1366 415.806 43.9086 416.825 43.3239C417.839 42.7422 418.689 41.7338 419.026 40.5646L417.104 40.0107C416.923 40.6396 416.432 41.2437 415.83 41.5893C415.233 41.9319 414.682 41.9459 414.271 41.7059L413.262 43.4332ZM419.026 40.5646C419.644 38.4185 418.909 36.2084 418.329 34.4879L416.434 35.1277C417.05 36.953 417.522 38.5608 417.104 40.0107L419.026 40.5646ZM418.329 34.4879C417.324 31.513 416.32 28.5381 415.315 25.5631L413.42 26.2029C414.425 29.1778 415.429 32.1528 416.434 35.1277L418.329 34.4879ZM415.315 25.5631C413.191 19.2699 410.864 12.497 406.055 7.49201L404.613 8.8776C409.062 13.508 411.271 19.8368 413.42 26.2029L415.315 25.5631ZM406.055 7.49201C398.76 -0.102145 387.276 -1.94945 377.12 -0.587562L377.386 1.3947C387.217 0.076287 397.937 1.92868 404.613 8.8776L406.055 7.49201ZM377.12 -0.587562C364.06 1.16372 351.058 8.24696 344.9 20.1054L346.675 21.0271C352.453 9.90142 364.777 3.08544 377.386 1.3947L377.12 -0.587562ZM344.9 20.1054C338.749 31.9524 341.296 48.5865 352.59 56.0965L353.698 54.4311C343.426 47.6013 340.892 32.1643 346.675 21.0271L344.9 20.1054ZM352.39 54.6064C336.823 72.4493 331.412 92.3447 332.265 115.906L334.264 115.833C333.425 92.673 338.729 73.3071 353.897 55.9212L352.39 54.6064ZM332.265 115.906C332.7 127.924 339.453 139.354 348.038 149.754C356.625 160.157 367.212 169.715 375.466 177.897L376.874 176.477C368.526 168.202 358.083 158.782 349.58 148.481C341.074 138.176 334.675 127.176 334.264 115.833L332.265 115.906ZM376.688 178.042C377.823 177.354 378.831 176.109 379.669 174.691C380.52 173.25 381.255 171.529 381.799 169.772C382.344 168.015 382.709 166.188 382.802 164.53C382.893 162.9 382.728 161.306 382.092 160.111L380.327 161.051C380.709 161.769 380.888 162.927 380.805 164.418C380.723 165.881 380.396 167.544 379.889 169.18C379.383 170.815 378.707 172.388 377.947 173.673C377.174 174.982 376.371 175.896 375.651 176.332L376.688 178.042ZM382.092 160.111C381.236 158.504 381.401 156.759 381.567 154.655C381.724 152.659 381.88 150.31 380.379 148.215L378.754 149.38C379.778 150.81 379.735 152.44 379.573 154.498C379.419 156.447 379.144 158.832 380.327 161.051L382.092 160.111ZM380.379 148.215C379.641 147.185 378.787 146.627 377.864 146.583C376.975 146.541 376.296 146.992 375.913 147.374C375.723 147.565 375.55 147.792 375.443 148.026C375.409 148.102 375.293 148.36 375.334 148.679C375.358 148.872 375.458 149.191 375.779 149.408C376.084 149.615 376.395 149.597 376.552 149.569C376.832 149.519 377.038 149.366 377.117 149.306C377.231 149.219 377.344 149.112 377.456 148.996C377.68 148.763 377.956 148.428 378.29 147.97L376.673 146.792C376.369 147.21 376.153 147.466 376.014 147.61C375.981 147.645 375.954 147.671 375.934 147.689C375.924 147.698 375.917 147.705 375.911 147.709C375.906 147.714 375.903 147.716 375.903 147.716C375.903 147.716 375.904 147.715 375.906 147.714C375.908 147.713 375.91 147.711 375.914 147.708C375.922 147.703 375.935 147.695 375.954 147.685C375.981 147.67 376.068 147.624 376.199 147.601C376.326 147.578 376.613 147.557 376.902 147.753C377.206 147.959 377.296 148.258 377.318 148.426C377.338 148.584 377.311 148.703 377.3 148.748C377.286 148.803 377.271 148.839 377.264 148.854C377.245 148.896 377.255 148.861 377.327 148.789C377.469 148.647 377.632 148.575 377.769 148.581C377.873 148.586 378.229 148.648 378.754 149.38L380.379 148.215ZM378.29 147.97C379.018 146.97 378.746 145.783 378.396 144.913C378.03 144.005 377.413 143.036 376.895 142.207C376.338 141.316 375.905 140.6 375.724 140.043C375.635 139.773 375.648 139.656 375.653 139.637C375.653 139.637 375.649 139.65 375.638 139.663C375.63 139.674 375.635 139.661 375.684 139.634L374.716 137.884C374.19 138.175 373.829 138.626 373.701 139.2C373.584 139.721 373.683 140.237 373.822 140.664C374.096 141.502 374.685 142.444 375.199 143.267C375.752 144.151 376.255 144.952 376.54 145.66C376.841 146.408 376.751 146.686 376.673 146.792L378.29 147.97ZM375.684 139.634C381.716 136.299 385.687 130.897 389.036 125.056C390.709 122.137 392.25 119.066 393.805 116.076C395.368 113.072 396.953 110.136 398.742 107.418L397.071 106.319C395.223 109.127 393.598 112.141 392.031 115.153C390.457 118.179 388.947 121.189 387.301 124.061C384.01 129.801 380.265 134.817 374.716 137.884L375.684 139.634ZM398.742 107.418C407.348 94.3381 422.091 85.4727 437.679 84.0032L437.491 82.012C421.299 83.5385 406.011 92.7319 397.071 106.319L398.742 107.418ZM437.679 84.0032C446.276 83.1928 455.259 84.6722 462.181 89.5749L463.337 87.9428C455.909 82.6818 446.401 81.1721 437.491 82.012L437.679 84.0032ZM462.181 89.5749C469.106 94.48 473.507 103.196 471.933 111.366L473.897 111.744C475.65 102.647 470.761 93.2012 463.337 87.9428L462.181 89.5749ZM473.627 112.257C478.153 107.662 480.401 100.942 479.551 94.5494L477.568 94.8128C478.337 100.594 476.295 106.698 472.202 110.853L473.627 112.257ZM479.551 94.5494C478.701 88.1562 474.776 82.2573 469.208 79.0038L468.199 80.7307C473.235 83.6727 476.8 89.0316 477.568 94.8128L479.551 94.5494ZM469.661 80.1567C472.986 69.1593 470.142 56.5309 462.423 48.0207L460.942 49.3644C468.189 57.3542 470.868 69.2528 467.746 79.5778L469.661 80.1567ZM462.423 48.0207C460.345 45.7296 456.8 44.2119 452.681 43.2051C448.524 42.1891 443.615 41.6544 438.634 41.4486C428.678 41.0373 418.278 41.9348 412.727 43.0381L413.116 44.9998C418.489 43.9319 428.729 43.0411 438.551 43.4469C443.46 43.6497 448.225 44.1749 452.206 45.1479C456.224 46.1301 459.279 47.5306 460.942 49.3644L462.423 48.0207Z" fill="#D08D8D" mask="url(#path-4-inside-1_167_2)"/>
<mask id="path-6-inside-2_167_2" fill="white">
<path d="M412.07 83.3312C397.601 84.8931 387.154 97.4264 378.332 109.001C373.248 115.672 367.922 123.039 368.05 131.426C368.179 139.906 373.848 147.179 376.558 155.215C380.986 168.35 376.67 183.978 366.128 192.978C376.545 194.955 387.806 187.144 389.604 176.694C391.698 164.53 382.476 152.79 383.569 140.495C384.531 129.663 393.067 121.326 400.323 113.228C407.58 105.129 414.396 94.3814 411.057 84.0321"/>
</mask>
<path d="M412.07 83.3312C397.601 84.8931 387.154 97.4264 378.332 109.001C373.248 115.672 367.922 123.039 368.05 131.426C368.179 139.906 373.848 147.179 376.558 155.215C380.986 168.35 376.67 183.978 366.128 192.978C376.545 194.955 387.806 187.144 389.604 176.694C391.698 164.53 382.476 152.79 383.569 140.495C384.531 129.663 393.067 121.326 400.323 113.228C407.58 105.129 414.396 94.3814 411.057 84.0321" fill="#F7CAC9"/>
<path d="M378.332 109.001L379.128 109.607L379.128 109.607L378.332 109.001ZM368.05 131.426L367.05 131.442L367.05 131.442L368.05 131.426ZM376.558 155.215L377.505 154.895L377.505 154.895L376.558 155.215ZM366.128 192.978L365.478 192.217L363.892 193.571L365.941 193.96L366.128 192.978ZM389.604 176.694L390.59 176.864L390.59 176.864L389.604 176.694ZM383.569 140.495L384.565 140.583L384.565 140.583L383.569 140.495ZM411.963 82.337C404.458 83.1471 398.045 86.7994 392.429 91.6549C386.821 96.5043 381.95 102.605 377.537 108.395L379.128 109.607C383.537 103.822 388.3 97.8691 393.737 93.1678C399.168 88.4726 405.213 85.0773 412.177 84.3255L411.963 82.337ZM377.537 108.395C372.49 115.017 366.916 122.654 367.05 131.442L369.049 131.411C368.928 123.424 374.006 116.328 379.128 109.607L377.537 108.395ZM367.05 131.442C367.117 135.895 368.64 139.989 370.426 143.902C372.24 147.877 374.277 151.58 375.61 155.534L377.505 154.895C376.129 150.814 373.976 146.863 372.246 143.072C370.488 139.22 369.111 135.437 369.049 131.411L367.05 131.442ZM375.61 155.534C379.908 168.282 375.71 183.482 365.478 192.217L366.777 193.738C377.63 184.473 382.064 168.418 377.505 154.895L375.61 155.534ZM365.941 193.96C376.907 196.041 388.696 187.864 390.59 176.864L388.619 176.525C386.915 186.423 376.182 193.868 366.314 191.995L365.941 193.96ZM390.59 176.864C391.684 170.507 389.812 164.303 387.915 158.34C385.989 152.291 384.04 146.49 384.565 140.583L382.572 140.406C382.005 146.794 384.12 153.011 386.009 158.947C387.925 164.969 389.618 170.718 388.619 176.525L390.59 176.864ZM384.565 140.583C385.024 135.411 387.294 130.788 390.401 126.415C393.519 122.025 397.406 117.982 401.068 113.895L399.579 112.56C395.984 116.572 391.975 120.746 388.77 125.257C385.554 129.785 383.075 134.747 382.572 140.406L384.565 140.583ZM401.068 113.895C404.731 109.807 408.326 105.005 410.579 99.876C412.836 94.7403 413.777 89.2051 412.009 83.7251L410.106 84.3391C411.676 89.2084 410.879 94.2214 408.748 99.0715C406.614 103.928 403.173 108.549 399.579 112.56L401.068 113.895Z" fill="#E39B9B" mask="url(#path-6-inside-2_167_2)"/>
<path d="M414.839 594.837C414.839 594.837 293.839 606.837 284.839 592.837C275.839 578.837 407.63 564.837 407.63 564.837L414.839 594.837Z" fill="#BB907F"/>
<path d="M337.689 370.5L335.189 383.772C341.998 393.821 342.65 404.445 338.689 415.5L476.689 416.5C475.206 401.547 473.582 385.532 479.264 370.837L337.689 370.5Z" fill="#BB907F"/>
<path d="M563.726 469.17L513.677 429.131C507.027 423.811 502.722 415.9 501.864 407.427L494.152 331.152L540.097 315.837L551.174 391.36L578.784 454.112L563.726 469.17Z" fill="#BB907F"/>
<path d="M372.189 203L439.189 200L510.189 233.819L481.189 372L334.189 383L314.189 230L372.189 203Z" fill="#F6765E"/>
<path d="M479.264 403.837C489.331 417.107 493.558 449.057 497.839 480.837C497.839 480.837 311.839 479.837 310.839 479.837C309.839 479.837 339.264 412.837 339.264 412.837L479.264 403.837Z" fill="#B0ACF9"/>
<path d="M485.339 472.36L497.839 480.837C497.839 480.837 674.839 468.837 659.839 524.837C644.839 580.837 597.839 589.837 597.839 589.837L407.839 600.837L405.839 569.837C405.839 569.837 222.839 610.837 205.839 526.837C188.839 442.837 310.839 479.837 310.839 479.837L485.339 472.36Z" fill="#B0ACF9"/>
<path d="M410.654 538.837C410.654 538.837 414.839 516.837 444.839 525.837C474.839 534.837 491.839 546.837 491.839 546.837L419.839 564.837L410.654 538.837Z" fill="#BB907F"/>
<path d="M485.689 231.5C485.689 231.5 519.689 219.5 532.689 258.5C545.689 297.5 542.689 329.5 542.689 329.5L492.689 345.5L485.689 231.5Z" fill="#F6765E"/>
<path d="M252.544 475.257L241.635 456.037L265.203 397.369L276.281 321.837L322.227 337.152L314.421 414.349C313.623 422.236 309.615 429.6 303.425 434.552L252.544 475.257Z" fill="#BB907F"/>
<path d="M330.689 231.5C330.689 231.5 296.689 219.5 283.689 258.5C270.689 297.5 273.689 329.5 273.689 329.5L323.689 345.5L330.689 231.5Z" fill="#F6765E"/>
<path d="M578.189 478C591.444 478 602.189 462.106 602.189 442.5C602.189 422.894 591.444 407 578.189 407C564.934 407 554.189 422.894 554.189 442.5C554.189 462.106 564.934 478 578.189 478Z" fill="#BB907F"/>
<path d="M241.189 484C254.444 484 265.189 468.106 265.189 448.5C265.189 428.894 254.444 413 241.189 413C227.935 413 217.189 428.894 217.189 448.5C217.189 468.106 227.935 484 241.189 484Z" fill="#BB907F"/>
<path d="M332.839 507.837L419.839 532.837L436.839 562.837L404.328 569.837" fill="#B0ACF9"/>
<ellipse cx="409.5" cy="121.5" rx="10.5" ry="3.5" fill="#785E5C"/>
<ellipse cx="457.5" cy="121.5" rx="10.5" ry="3.5" fill="#6D5D5D"/>
</g>
<defs>
<clipPath id="clip0_167_2">
<rect width="788.67" height="600.837" fill="white"/>
</clipPath>
</defs>
</svg>
